<svg width="14" height="14" viewBox="0 0 14 14" fill="none" xmlns="http://www.w3.org/2000/svg">
<path fill-rule="evenodd" clip-rule="evenodd" d="M1.34312 4.58594C1.60829 4.58598 1.86258 4.69133 2.05008 4.87883C2.23758 5.06633 2.34293 5.32062 2.34297 5.58579L2.34297 11.657L8.41419 11.657C8.67636 11.6616 8.92625 11.7689 9.11004 11.9559C9.29383 12.1429 9.39681 12.3946 9.39681 12.6569C9.39681 12.9191 9.29383 13.1708 9.11004 13.3578C8.92625 13.5448 8.67636 13.6521 8.41419 13.6567L1.34312 13.6567C1.07796 13.6567 0.823666 13.5513 0.636166 13.3638C0.448667 13.1763 0.343313 12.922 0.343273 12.6569L0.343273 5.58579C0.343313 5.32062 0.448667 5.06633 0.636166 4.87883C0.823666 4.69133 1.07796 4.58598 1.34312 4.58594V4.58594ZM4.58591 1.34315C4.58595 1.07798 4.69131 0.823692 4.87881 0.636192C5.06631 0.448693 5.3206 0.34334 5.58576 0.3433L12.6568 0.343299C12.922 0.343339 13.1763 0.448693 13.3638 0.636192C13.5513 0.823692 13.6566 1.07798 13.6567 1.34315V8.41422C13.6521 8.67638 13.5448 8.92627 13.3578 9.11006C13.1708 9.29385 12.919 9.39684 12.6568 9.39684C12.3946 9.39684 12.1429 9.29385 11.9559 9.11006C11.7689 8.92627 11.6615 8.67638 11.657 8.41422L11.657 2.343H5.58576C5.3206 2.34296 5.06631 2.2376 4.87881 2.0501C4.69131 1.8626 4.58595 1.60831 4.58591 1.34315V1.34315Z" fill="url(#paint0_linear_16_86)"/>
<defs>
<linearGradient id="paint0_linear_16_86" x1="8.60091" y1="-3.08079" x2="6.49616" y2="11.25" gradientUnits="userSpaceOnUse">
<stop stop-color="#DDCAB0"/>
<stop offset="1" stop-color="#776D62"/>
</linearGradient>
</defs>
</svg>
