<svg xmlns="http://www.w3.org/2000/svg" viewBox="0 0 305.41 76.81"><defs><style>.cls-1{fill:#fff;fill-rule:evenodd;}</style></defs><g id="Слой_2" data-name="Слой 2"><g id="Слой_1-2" data-name="Слой 1"><path class="cls-1" d="M132.54,7.22A11,11,0,0,1,142.42,1V0H125.33V1A5.61,5.61,0,0,1,131,6.66a5.56,5.56,0,0,1-.56,2.56l-12.54,26.2L104.45,7.33A5.29,5.29,0,0,1,104,5.44,4.48,4.48,0,0,1,108.56,1V0H0V1A8,8,0,0,1,8,9V64.07a8,8,0,0,1-8,8.1v1H32.42v-1a8.12,8.12,0,0,1-8-8.1V9a8,8,0,0,1,8-8H44.08a8,8,0,0,1,8,8V42.27a8.06,8.06,0,0,1-8,8.11v1H76.61v-1a8.16,8.16,0,0,1-8.1-8.11V9a8.06,8.06,0,0,1,7.84-8A11.69,11.69,0,0,1,86.46,7.55L97.57,30.76a12.8,12.8,0,0,1,1.22,5.77,12.8,12.8,0,0,1-1.22,5.77L86.46,65.51A11.45,11.45,0,0,1,76,72.17v1h17.1v-1a5.44,5.44,0,0,1-5.44-5.44,6.49,6.49,0,0,1,.55-2.44L100.9,37.75l13.21,27.76a4.38,4.38,0,0,1,.45,2A4.6,4.6,0,0,1,110,72.17v1h32.42v-1a11.15,11.15,0,0,1-10-6.33L121,42a13.08,13.08,0,0,1-1.11-5.33A12.37,12.37,0,0,1,121,31.31L132.54,7.22ZM65.89,71.42l.9,1.73,1.93.33-1.37,1.39.29,1.94-1.75-.87-1.76.87.29-1.94-1.37-1.39L65,73.15l.91-1.73ZM55,71.31,55.86,73l1.93.33-1.37,1.39.29,1.94L55,75.83l-1.75.87.28-1.94-1.36-1.39L54.05,73l.9-1.73ZM51.64,60.87l.91,1.73,1.93.33-1.37,1.4.28,1.93-1.75-.87-1.75.87.28-1.93-1.37-1.4,1.93-.33.91-1.73ZM69.42,61l.91,1.74,1.93.33-1.37,1.39.28,1.94-1.75-.87-1.75.87L68,64.49,66.58,63.1l1.93-.33L69.42,61Zm-8.81-6.54.91,1.74,1.93.33L62.08,58l.28,1.94L60.61,59l-1.75.87L59.14,58l-1.37-1.39,1.93-.33.91-1.74Zm97-52.5V72.32h-.57V2Zm17.56,19.42a.36.36,0,0,0,.27.36l1.17.35,0,.5c-.84,0-1.82,0-3,0s-2.22,0-3.16,0l0-.5,1.36-.37c.17-.06.27-.16.27-.32,0-.55,0-1.22,0-2V11.34c0-.68,0-1.24,0-1.69a.31.31,0,0,0-.24-.33l-1.36-.4,0-.52c.94,0,1.84,0,2.71,0h9.64c.86,0,1.75,0,2.66,0l.07.52-1.4.4a.33.33,0,0,0-.24.33c0,.45,0,1,0,1.69v8.07c0,.8,0,1.47,0,2a.35.35,0,0,0,.28.32l1.31.37,0,.5c-1,0-2,0-3.22,0s-2.11,0-2.92,0l-.06-.5,1.22-.35a.35.35,0,0,0,.26-.36c0-.53,0-1.2,0-2V9.54h-5.71v9.87c0,.8,0,1.47,0,2ZM190.3,18.1,189.59,20c-.15.38-.25.67-.33.9a1.74,1.74,0,0,0-.12.52.38.38,0,0,0,.09.27.71.71,0,0,0,.29.14l1,.28,0,.52-2.39,0-2.2,0-.05-.5L187,21.8a1,1,0,0,0,.57-.37,4.36,4.36,0,0,0,.4-.79l5-12.3,1.1-.16,4.36,12.33a3.89,3.89,0,0,0,.46,1,1.27,1.27,0,0,0,.6.36l1,.29,0,.5c-.91,0-1.83,0-2.75,0-1.23,0-2.42,0-3.58,0l-.05-.5,1-.29a.65.65,0,0,0,.29-.15.41.41,0,0,0,.09-.28,1.83,1.83,0,0,0-.1-.53c-.06-.22-.16-.51-.29-.87l-.67-1.9Zm2.19-5.83c-.12.35-.25.72-.39,1.1L190.71,17h3.39l-1.25-3.66q-.19-.59-.36-1.11Zm14.9-2.75h2.76v9.9c0,.4,0,.77,0,1.1s0,.63,0,.89a.37.37,0,0,1-.27.36l-1.26.35.05.5c.84,0,1.84,0,3,0s2.23,0,3.2,0l0-.5-1.32-.37a.35.35,0,0,1-.28-.32c0-.27,0-.57,0-.91v-10c0-.34,0-.64,0-.91a.33.33,0,0,1,.28-.31l1.35-.38-.05-.52c-.93,0-2,0-3.15,0h-5.24c-.52,0-1.28,0-2.28,0l0,.52,1.66.43c.21.05.31.16.31.31,0,.52,0,1.1-.09,1.73s-.14,1.29-.26,2-.27,1.37-.45,2.08a19.4,19.4,0,0,1-.65,2,16.58,16.58,0,0,1-.87,1.85,8.93,8.93,0,0,1-1.08,1.52,5.13,5.13,0,0,1-.5.47,3.08,3.08,0,0,1-.47.3,3.19,3.19,0,0,1-.48.19l-.53.12-.59.1,0,.57a13.84,13.84,0,0,0,2.14.2,5.21,5.21,0,0,0,1-.07,1.93,1.93,0,0,0,.64-.22,1.49,1.49,0,0,0,.44-.39,3.81,3.81,0,0,0,.36-.59,16.23,16.23,0,0,0,1.19-2.81,27.68,27.68,0,0,0,.78-3c.2-1,.36-2.06.46-3.1s.18-2.06.22-3.08Zm12.17,8.58L218.84,20c-.14.38-.24.67-.32.9a1.74,1.74,0,0,0-.12.52.38.38,0,0,0,.09.27.71.71,0,0,0,.29.14l1,.28,0,.52-2.4,0-2.19,0-.05-.5,1.08-.32a1.08,1.08,0,0,0,.57-.37,4.36,4.36,0,0,0,.4-.79l5.05-12.3,1.09-.16,4.37,12.33a3.89,3.89,0,0,0,.46,1,1.27,1.27,0,0,0,.6.36l1,.29,0,.5c-.91,0-1.83,0-2.75,0-1.23,0-2.42,0-3.58,0l0-.5,1-.29a.65.65,0,0,0,.29-.15.41.41,0,0,0,.09-.28,1.83,1.83,0,0,0-.1-.53c-.07-.22-.16-.51-.29-.87l-.67-1.9Zm2.19-5.83c-.12.35-.25.72-.39,1.1L220,17h3.39l-1.25-3.66q-.2-.59-.36-1.11ZM233.8,22.59c1.14,0,2.28,0,3.4,0l0-.5-1.6-.44a.36.36,0,0,1-.27-.33c0-.5,0-1.16,0-2V9.48h2.93l.66,2.8.56-.09.68-3.7L240,8.4c-1.68,0-3.28,0-4.8,0h-2.83c-1.52,0-3.11,0-4.77,0l-.07.09.26,3.78.57-.09.93-2.7h2.92v9.91c0,.8,0,1.46,0,2a.35.35,0,0,1-.26.33l-1.63.44.06.5c1.07,0,2.21,0,3.4,0ZM259,19.41v1.11c0,.33,0,.63,0,.89s.12.3.35.36l1.25.35,0,.5c-.95,0-2,0-3.13,0s-2.23,0-3.16,0l-.05-.5,1.36-.37a.35.35,0,0,0,.28-.32c0-.27,0-.57,0-.91V10.41c0-.27,0-.53,0-.76a.33.33,0,0,0-.24-.33l-1.37-.4,0-.52c.94,0,2,0,3.13,0s2.22,0,3.16,0l.05.52-1.36.38a.31.31,0,0,0-.27.3c0,.25,0,.5,0,.79v9Zm-16.7-11c.94,0,2,0,3.11,0s2.27,0,3.27,0l.05.52-1.47.41a.33.33,0,0,0-.26.3c0,.25,0,.51,0,.79v4q1-.09,1.89-.09a6.58,6.58,0,0,1,3.93.94,3.24,3.24,0,0,1,1.26,2.79,4,4,0,0,1-1.65,3.41,7.7,7.7,0,0,1-4.56,1.18l-1.27,0c-.48,0-1,0-1.53,0-.9,0-1.79,0-2.7,0l0-.5,1.35-.37a.35.35,0,0,0,.27-.32c0-.27,0-.57,0-.91V10.41c0-.27,0-.53,0-.76a.33.33,0,0,0-.24-.33l-1.36-.4,0-.52ZM247,21.63a5.38,5.38,0,0,0,1.11.12,2.41,2.41,0,0,0,2-.82,3.81,3.81,0,0,0,.68-2.45,3.67,3.67,0,0,0-.65-2.39,2.49,2.49,0,0,0-2-.78,9.47,9.47,0,0,0-1.08.08v6.24ZM184.16,48c-.93,0-2,0-3.13,0l-3.56,0-.07-.5.91-.24a.69.69,0,0,0,.3-.16.36.36,0,0,0,.09-.24,1.31,1.31,0,0,0-.18-.58c-.12-.21-.25-.44-.4-.67l-2.2-3.48-2,3.12c-.21.31-.4.61-.56.89a1.49,1.49,0,0,0-.24.7.38.38,0,0,0,.07.24.64.64,0,0,0,.28.16l.87.24,0,.52c-.75,0-1.57,0-2.44,0l-2.38,0-.05-.5,1.17-.33a1.75,1.75,0,0,0,.64-.36,3.11,3.11,0,0,0,.59-.72l3.36-5-3.47-5.5a3.27,3.27,0,0,0-.57-.74,1.43,1.43,0,0,0-.56-.29l-1.06-.27,0-.52c1,0,2.05,0,3.29,0,1.08,0,2.21,0,3.41,0l.06.52-.89.24a.56.56,0,0,0-.3.15.3.3,0,0,0-.1.24,1.16,1.16,0,0,0,.19.58l.4.67,1.73,2.76,1.56-2.4a9.46,9.46,0,0,0,.57-.9,1.63,1.63,0,0,0,.25-.68c0-.18-.14-.32-.41-.4l-.89-.24,0-.54c.75,0,1.55,0,2.42,0s1.63,0,2.37,0l.06.52-1.13.31a1.39,1.39,0,0,0-.64.37,6.21,6.21,0,0,0-.64.84L178,39.93l3.85,6.1a4.34,4.34,0,0,0,.64.85,1.31,1.31,0,0,0,.59.3l1,.28,0,.5Zm3.17-7.29a9.33,9.33,0,0,0,1.09,5,3.59,3.59,0,0,0,3.22,1.72,3.43,3.43,0,0,0,3.09-1.57,9.31,9.31,0,0,0,1-4.91,9.21,9.21,0,0,0-1-4.83,3.61,3.61,0,0,0-3.27-1.69,3.39,3.39,0,0,0-3.12,1.57,9.23,9.23,0,0,0-1,4.74Zm11.81-.14a7,7,0,0,0-1.93-5.21,7.38,7.38,0,0,0-5.46-1.91,7.86,7.86,0,0,0-5.75,2A7.41,7.41,0,0,0,183.92,41a6.76,6.76,0,0,0,7.39,7.31,7.66,7.66,0,0,0,5.76-2.13,7.79,7.79,0,0,0,2.07-5.65ZM201,33.74c.95,0,1.92,0,2.92,0l1.72-.06c.78,0,1.31,0,1.6,0a7.33,7.33,0,0,1,3.87.82,2.65,2.65,0,0,1,1.3,2.38c0,1.62-.95,2.74-2.87,3.36a4.32,4.32,0,0,1,2.57,1.17,3.23,3.23,0,0,1,.91,2.33,3.6,3.6,0,0,1-1.64,3.15A8.13,8.13,0,0,1,206.76,48c-.39,0-.8,0-1.23,0s-1,0-1.61,0c-1,0-1.94,0-2.86,0l-.06-.5,1.36-.37a.36.36,0,0,0,.28-.32c0-.27,0-.57,0-.91s0-.7,0-1.11V36.67c0-.34,0-.64,0-.92s0-.53,0-.76a.34.34,0,0,0-.24-.34L201,34.26l0-.52Zm4.69,7.17V47a9,9,0,0,0,1.19.09,2.66,2.66,0,0,0,2.1-.81,3.44,3.44,0,0,0,.71-2.35,2.64,2.64,0,0,0-3.07-3Zm0-.91h1a2.62,2.62,0,0,0,1.92-.62,2.94,2.94,0,0,0,.63-2.12,2.68,2.68,0,0,0-.65-2,2.62,2.62,0,0,0-1.86-.61l-.45,0-.57.06V40Zm11.76,3.43-.72,1.9q-.21.56-.33.9a1.68,1.68,0,0,0-.12.52.36.36,0,0,0,.09.26.6.6,0,0,0,.29.14l1,.29,0,.52-2.39,0-2.2,0,0-.5,1.08-.33a.94.94,0,0,0,.57-.37,4.44,4.44,0,0,0,.41-.78l5-12.3,1.1-.17,4.37,12.34a3.56,3.56,0,0,0,.46,1,1.24,1.24,0,0,0,.59.36l1,.29,0,.5c-.91,0-1.83,0-2.75,0-1.23,0-2.42,0-3.58,0l-.05-.5,1-.29a.76.76,0,0,0,.3-.16.37.37,0,0,0,.09-.27,2.09,2.09,0,0,0-.1-.53q-.1-.33-.3-.87l-.67-1.91Zm2.19-5.82c-.12.35-.26.72-.4,1.09l-1.39,3.67h3.39L220,38.71c-.13-.38-.25-.75-.35-1.1ZM233.06,41v3.77c0,.8,0,1.46,0,2a.32.32,0,0,0,.26.35l1.18.36,0,.5q-1.26,0-3,0c-1.16,0-2.22,0-3.16,0l0-.5,1.36-.37c.18-.06.27-.16.27-.32,0-.55,0-1.22,0-2V36.67c0-.68,0-1.24,0-1.68a.32.32,0,0,0-.24-.34l-1.36-.39,0-.52c.94,0,2,0,3.12,0s2.17,0,3,0l.07.52-1.21.34a.31.31,0,0,0-.26.32c0,.48,0,1,0,1.7V39.9h6.06V36.62c0-.65,0-1.22,0-1.7a.33.33,0,0,0-.27-.32l-1.18-.34,0-.52c.86,0,1.88,0,3,0s2.17,0,3.09,0l.05.52-1.38.39a.34.34,0,0,0-.25.34c0,.44,0,1,0,1.68v8.08c0,.8,0,1.47,0,2a.35.35,0,0,0,.28.32l1.32.37,0,.5c-1,0-2,0-3.2,0s-2.12,0-2.93,0l-.06-.5,1.22-.36a.34.34,0,0,0,.27-.35c0-.54,0-1.2,0-2V41Zm23.74-3.4-.55.09-.77-2.91a5.72,5.72,0,0,0-1.74-.25,4,4,0,0,0-3.46,1.68,7.26,7.26,0,0,0-1.23,4.4,6.91,6.91,0,0,0,1.45,4.62,4.9,4.9,0,0,0,4,1.73,8.61,8.61,0,0,0,3-.58l.13.58a8,8,0,0,1-4.58,1.37,7.34,7.34,0,0,1-5.35-2,7,7,0,0,1-2-5.26,7.07,7.07,0,0,1,2.24-5.51,8.37,8.37,0,0,1,5.84-2,16.56,16.56,0,0,1,3.65.42l.06.1-.66,3.55Zm7.13,2.86h.53c.31,0,.58,0,.83,0a2.29,2.29,0,0,0,.68-.12,1.49,1.49,0,0,0,.54-.32,2.33,2.33,0,0,0,.46-.63,5.22,5.22,0,0,0,.42-1q.21-.62.42-1.5c.11-.48.22-.89.31-1.23s.19-.63.28-.86a1.86,1.86,0,0,1,.3-.55,1.27,1.27,0,0,1,.4-.3,1.65,1.65,0,0,1,.54-.13q.32,0,.75,0c1,0,1.89,0,2.66.11l.05.68a3.32,3.32,0,0,0-1.87.53A4.42,4.42,0,0,0,270,36.73a19.61,19.61,0,0,1-1.09,1.92,8.37,8.37,0,0,1-1.22,1.46c.58.85,1.09,1.63,1.5,2.35s.79,1.37,1.12,2a12.08,12.08,0,0,0,1.54,2.28,2.23,2.23,0,0,0,.65.48,5.37,5.37,0,0,0,.93.3l0,.52a21.58,21.58,0,0,1-2.35.12,4,4,0,0,1-1.34-.19,2.63,2.63,0,0,1-.95-.59,4.75,4.75,0,0,1-.74-1c-.22-.39-.47-.84-.74-1.35s-.5-.94-.77-1.42-.55-1-.86-1.47l-.24-.34a2.3,2.3,0,0,0-.2-.22.78.78,0,0,0-.22-.12,1.14,1.14,0,0,0-.28,0h-.81v3.33c0,.8,0,1.46,0,2a.32.32,0,0,0,.26.35l1.18.36,0,.5q-1.26,0-3,0c-1.16,0-2.21,0-3.16,0l-.05-.5,1.36-.37a.35.35,0,0,0,.28-.32c0-.55,0-1.22,0-2V36.67c0-.68,0-1.24,0-1.68a.34.34,0,0,0-.25-.34l-1.36-.39,0-.52c.94,0,2,0,3.12,0s2.17,0,3,0l.06.52-1.21.34a.32.32,0,0,0-.26.32c0,.48,0,1,0,1.71v3.81ZM279.11,43l6.19-6.52c0-.57,0-1.08,0-1.52a.33.33,0,0,0-.28-.32l-1.17-.34,0-.52c.86,0,1.88,0,3,0s2.16,0,3.08,0l.06.52-1.39.39a.32.32,0,0,0-.24.34c0,.44,0,1,0,1.68v8.08c0,.8,0,1.47,0,2,0,.16.09.26.27.32l1.33.37,0,.5c-1,0-2,0-3.2,0s-2.12,0-2.93,0l-.06-.5L285,47.1a.34.34,0,0,0,.28-.35c0-.54,0-1.2,0-2V38.12l-6.19,6.52c0,.87,0,1.57,0,2.11a.34.34,0,0,0,.26.35l1.18.36,0,.5c-.84,0-1.83,0-3,0s-2.22,0-3.16,0l-.05-.5,1.36-.37a.35.35,0,0,0,.27-.32c0-.55,0-1.22,0-2V36.67c0-.68,0-1.24,0-1.68a.34.34,0,0,0-.24-.34l-1.36-.39,0-.52c.94,0,2,0,3.11,0s2.18,0,3,0l.06.52-1.21.34a.33.33,0,0,0-.26.32c0,.48,0,1,0,1.71V43Zm26.3,5c-.94,0-2,0-3.13,0l-3.56,0-.07-.5.91-.24a.69.69,0,0,0,.3-.16.36.36,0,0,0,.09-.24,1.31,1.31,0,0,0-.18-.58l-.4-.67-2.2-3.48-2,3.12c-.21.31-.4.61-.56.89a1.49,1.49,0,0,0-.24.7.38.38,0,0,0,.07.24.58.58,0,0,0,.28.16l.87.24,0,.52c-.76,0-1.57,0-2.44,0l-2.38,0-.05-.5,1.16-.33a1.79,1.79,0,0,0,.65-.36,3.38,3.38,0,0,0,.59-.72l3.35-5-3.46-5.5a3.56,3.56,0,0,0-.58-.74,1.36,1.36,0,0,0-.56-.29l-1.05-.27,0-.52c.95,0,2.05,0,3.29,0,1.08,0,2.21,0,3.41,0l.06.52-.89.24a.64.64,0,0,0-.31.15.32.32,0,0,0-.09.24,1.16,1.16,0,0,0,.19.58c.12.22.26.44.4.67l1.73,2.76,1.56-2.4a9.46,9.46,0,0,0,.57-.9,1.58,1.58,0,0,0,.24-.68c0-.18-.13-.32-.4-.4l-.89-.24,0-.54c.75,0,1.55,0,2.42,0s1.63,0,2.37,0l.06.52-1.14.31a1.41,1.41,0,0,0-.63.37,6.21,6.21,0,0,0-.64.84l-2.84,4.15,3.85,6.1a4.9,4.9,0,0,0,.63.85,1.41,1.41,0,0,0,.6.3l1,.28,0,.5ZM171.79,57.55h5.5v.89h-4.47v2.08h2.27a3.12,3.12,0,0,1,2,.54,1.9,1.9,0,0,1,.68,1.57,2,2,0,0,1-.74,1.64,3.3,3.3,0,0,1-2.1.58h-3.12v-7.3ZM174.87,64a2.31,2.31,0,0,0,1.37-.34,1.18,1.18,0,0,0,.46-1c0-.88-.61-1.33-1.83-1.33h-2.05V64Zm10.8-6.47-3.24,6a3,3,0,0,1-.91,1.08,2,2,0,0,1-1.14.35,2.39,2.39,0,0,1-1-.22l.27-.83a2.17,2.17,0,0,0,.69.14,1.33,1.33,0,0,0,1.14-.73l.17-.27-2.94-5.53h1.11l2.37,4.63,2.43-4.63Zm6.69.91h-2.5v6.39h-1V58.46h-2.5v-.91h6v.91Zm1.8-.91h1v5.63l4.32-5.63h1v7.3h-1V59.23l-4.33,5.62h-1v-7.3Zm11.65,4.09h-1.52v3.21h-1v-7.3h1v3.17h1.54l2.3-3.17h1.11l-2.6,3.53,2.73,3.77h-1.19l-2.37-3.21Zm7.66-.09h2.81v.87h-2.81v-.87Zm11.15,3.38a4.12,4.12,0,0,1-2-.48,3.65,3.65,0,0,1-1.39-1.34,3.9,3.9,0,0,1,0-3.82A3.58,3.58,0,0,1,222.63,58a4.34,4.34,0,0,1,4,0A3.45,3.45,0,0,1,228,59.29a3.9,3.9,0,0,1,0,3.82,3.52,3.52,0,0,1-1.39,1.34,4.08,4.08,0,0,1-2,.48Zm0-.93a2.91,2.91,0,0,0,1.45-.36,2.72,2.72,0,0,0,1-1,2.95,2.95,0,0,0,0-2.86,2.65,2.65,0,0,0-1-1,3,3,0,0,0-2.9,0,2.67,2.67,0,0,0-1,1,2.82,2.82,0,0,0,1,3.87,2.94,2.94,0,0,0,1.45.36Zm11-5.54h-2.5v6.39h-1V58.46h-2.49v-.91h6v.91Zm7.1,5.48v.91h-5.3v-7.3h5.15v.91h-4.11V60.7h3.66v.88h-3.66v2.36Zm8.13-6.39v7.3h-1V58.46h-3.23l-.07,2.13a15.64,15.64,0,0,1-.24,2.45,3.18,3.18,0,0,1-.61,1.42,1.46,1.46,0,0,1-1.13.47,3.05,3.05,0,0,1-.66-.08l.08-.93a1.24,1.24,0,0,0,.33,0,.86.86,0,0,0,.72-.36,2.77,2.77,0,0,0,.41-1.08,13.69,13.69,0,0,0,.17-1.89l.12-3.08Zm6,2.54a3,3,0,0,1,2,.59,2.1,2.1,0,0,1,.7,1.72,2.23,2.23,0,0,1-.75,1.82,3.2,3.2,0,0,1-2.13.63h-3v-7.3h1v2.54ZM256.62,64a2.06,2.06,0,0,0,1.39-.41,1.47,1.47,0,0,0,.48-1.19c0-1-.62-1.5-1.87-1.5h-1.94V64Z"/></g></g></svg>