<svg width="14" height="18" viewBox="0 0 14 18" fill="none" xmlns="http://www.w3.org/2000/svg">
<path d="M7 18C5.73693 16.9226 4.56619 15.7415 3.5 14.469C1.9 12.558 8.83662e-07 9.71199 8.83662e-07 6.99999C-0.00141728 4.16754 1.70425 1.61338 4.32107 0.529387C6.93789 -0.554606 9.95007 0.0452297 11.952 2.04899C13.2685 3.3596 14.0059 5.14238 14 6.99999C14 9.71199 12.1 12.558 10.5 14.469C9.43382 15.7415 8.26307 16.9226 7 18ZM7 3.99999C5.92821 3.99999 4.93782 4.57179 4.40193 5.49999C3.86603 6.42819 3.86603 7.57179 4.40193 8.49999C4.93782 9.42819 5.92821 9.99999 7 9.99999C8.65686 9.99999 10 8.65684 10 6.99999C10 5.34313 8.65686 3.99999 7 3.99999Z" fill="url(#paint0_linear_1393_552)"/>
<defs>
<linearGradient id="paint0_linear_1393_552" x1="16" y1="1" x2="-4.5" y2="19.5" gradientUnits="userSpaceOnUse">
<stop stop-color="#DDCAB0"/>
<stop offset="1" stop-color="#423D38"/>
</linearGradient>
</defs>
</svg>
