<svg width="24" height="16" viewBox="0 0 24 16" fill="none" xmlns="http://www.w3.org/2000/svg">
<path fill-rule="evenodd" clip-rule="evenodd" d="M16 1.99512C15.2043 1.99512 14.4413 2.31119 13.8787 2.8738C13.3161 3.43641 13 4.19947 13 4.99512C13 5.79077 13.3161 6.55383 13.8787 7.11644C14.4413 7.67905 15.2043 7.99512 16 7.99512C16.7956 7.99512 17.5587 7.67905 18.1213 7.11644C18.6839 6.55383 19 5.79077 19 4.99512C19 4.19947 18.6839 3.43641 18.1213 2.8738C17.5587 2.31119 16.7956 1.99512 16 1.99512ZM11 4.99512C11 4.18008 11.1993 3.37739 11.5804 2.65696C11.9616 1.93653 12.513 1.3202 13.1868 0.861627C13.8606 0.403058 14.6363 0.116158 15.4464 0.0259103C16.2564 -0.0643375 17.0762 0.0448026 17.8344 0.343828C18.5926 0.642853 19.2662 1.1227 19.7966 1.74157C20.327 2.36045 20.698 3.0996 20.8774 3.89466C21.0568 4.68971 21.0391 5.51657 20.8259 6.30323C20.6126 7.08988 20.2103 7.81249 19.654 8.40812C21.3505 8.96 22.8171 10.0568 23.826 11.5281C23.9667 11.7473 24.0164 12.0127 23.9644 12.2679C23.9124 12.5232 23.763 12.748 23.5477 12.8947C23.3325 13.0414 23.0686 13.0984 22.812 13.0534C22.5554 13.0085 22.3265 12.8652 22.174 12.6541C21.198 11.2221 19.418 9.99512 17 9.99512C13.166 9.99512 11 13.0691 11 14.9951C11 15.2603 10.8946 15.5147 10.7071 15.7022C10.5196 15.8898 10.2652 15.9951 10 15.9951C9.73478 15.9951 9.48043 15.8898 9.29289 15.7022C9.10536 15.5147 9 15.2603 9 14.9951C9 14.3031 9.158 13.5651 9.46 12.8381C9.38147 12.7873 9.31045 12.7257 9.249 12.6551C8.428 11.7211 7.154 10.9951 5.5 10.9951C3.846 10.9951 2.572 11.7211 1.751 12.6551C1.57323 12.844 1.32905 12.9563 1.06999 12.9685C0.810932 12.9808 0.557261 12.8919 0.362511 12.7206C0.16776 12.5493 0.0471636 12.3091 0.0261716 12.0506C0.00517957 11.7921 0.0854339 11.5356 0.249998 11.3351C0.840515 10.6631 1.55658 10.1128 2.358 9.71512C1.71771 9.09024 1.27822 8.28867 1.09567 7.41281C0.913116 6.53695 0.995791 5.62655 1.33313 4.7979C1.67047 3.96925 2.24717 3.25997 2.98955 2.76065C3.73194 2.26133 4.60631 1.99463 5.501 1.99463C6.39568 1.99463 7.27006 2.26133 8.01244 2.76065C8.75483 3.25997 9.33152 3.96925 9.66886 4.7979C10.0062 5.62655 10.0889 6.53695 9.90633 7.41281C9.72378 8.28867 9.28429 9.09024 8.644 9.71512C9.33776 10.0594 9.96831 10.5186 10.509 11.0731C11.1882 10.2185 12.0331 9.50998 12.993 8.99012C12.3735 8.52459 11.8709 7.92124 11.525 7.22784C11.1791 6.53443 10.9993 5.77002 11 4.99512V4.99512ZM3 6.49512C3 5.83208 3.26339 5.1962 3.73223 4.72736C4.20107 4.25851 4.83696 3.99512 5.5 3.99512C6.16304 3.99512 6.79892 4.25851 7.26777 4.72736C7.73661 5.1962 8 5.83208 8 6.49512C8 7.15816 7.73661 7.79405 7.26777 8.26289C6.79892 8.73173 6.16304 8.99512 5.5 8.99512C4.83696 8.99512 4.20107 8.73173 3.73223 8.26289C3.26339 7.79405 3 7.15816 3 6.49512Z" fill="url(#paint0_linear_1_105)"/>
<defs>
<linearGradient id="paint0_linear_1_105" x1="23" y1="8.6455e-07" x2="7.5" y2="11.5" gradientUnits="userSpaceOnUse">
<stop stop-color="#DDCAB0"/>
<stop offset="1" stop-color="#776D62"/>
</linearGradient>
</defs>
</svg>
