<svg width="16" height="16" viewBox="0 0 16 16" fill="none" xmlns="http://www.w3.org/2000/svg">
<path fill-rule="evenodd" clip-rule="evenodd" d="M0 1C0 0.734784 0.105357 0.48043 0.292893 0.292893C0.48043 0.105357 0.734784 0 1 0C9.284 0 16 6.716 16 15C16 15.2652 15.8946 15.5196 15.7071 15.7071C15.5196 15.8946 15.2652 16 15 16C14.7348 16 14.4804 15.8946 14.2929 15.7071C14.1054 15.5196 14 15.2652 14 15C14 7.82 8.18 2 1 2C0.734784 2 0.48043 1.89464 0.292893 1.70711C0.105357 1.51957 0 1.26522 0 1ZM0 6C0 5.73478 0.105357 5.48043 0.292893 5.29289C0.48043 5.10536 0.734784 5 1 5C6.523 5 11 9.477 11 15C11 15.2652 10.8946 15.5196 10.7071 15.7071C10.5196 15.8946 10.2652 16 10 16C9.73478 16 9.48043 15.8946 9.29289 15.7071C9.10536 15.5196 9 15.2652 9 15C9 12.8783 8.15715 10.8434 6.65685 9.34315C5.15656 7.84285 3.12173 7 1 7C0.734784 7 0.48043 6.89464 0.292893 6.70711C0.105357 6.51957 0 6.26522 0 6ZM2.5 16C3.16304 16 3.79893 15.7366 4.26777 15.2678C4.73661 14.7989 5 14.163 5 13.5C5 12.837 4.73661 12.2011 4.26777 11.7322C3.79893 11.2634 3.16304 11 2.5 11C1.83696 11 1.20107 11.2634 0.732233 11.7322C0.263392 12.2011 0 12.837 0 13.5C0 14.163 0.263392 14.7989 0.732233 15.2678C1.20107 15.7366 1.83696 16 2.5 16V16Z" fill="url(#paint0_linear_1_136)"/>
<defs>
<linearGradient id="paint0_linear_1_136" x1="15.3426" y1="0.00483791" x2="2.45782" y2="6.38814" gradientUnits="userSpaceOnUse">
<stop stop-color="#DDCAB0"/>
<stop offset="1" stop-color="#776D62"/>
</linearGradient>
</defs>
</svg>
